<?xml version="1.0" encoding="utf-8"?>
<!-- Generator: Adobe Illustrator 28.2.0, SVG Export Plug-In . SVG Version: 6.00 Build 0)  -->
<svg version="1.1" xmlns="http://www.w3.org/2000/svg" xmlns:xlink="http://www.w3.org/1999/xlink" x="0px" y="0px"
	 viewBox="0 0 184 36" style="enable-background:new 0 0 184 36;" xml:space="preserve">
<style type="text/css">
	.st0{fill:#FFFFFF;}
</style>
<g id="Слой_2">
</g>
<g id="Слой_1">
	<g>
		<g>
			<path class="st0" d="M71.66,3.27V1.73c-0.64,0.02-1.18-0.53-1.17-1.17h-1.54c-0.03,0.62-0.46,1.1-1.03,1.16
				c-0.6,0.07-1.14-0.31-1.28-0.89c-0.02-0.09-0.03-0.18-0.05-0.27h-1.51c-0.01,0.09-0.02,0.18-0.05,0.27
				c-0.14,0.59-0.68,0.96-1.28,0.89c-0.57-0.06-1.01-0.55-1.03-1.16h-1.54c0.02,0.64-0.51,1.17-1.17,1.17
				c-0.65,0-1.18-0.54-1.16-1.17H57.3c-0.02,0.61-0.46,1.1-1.03,1.16c-0.6,0.07-1.14-0.31-1.28-0.89c-0.02-0.09-0.03-0.18-0.05-0.27
				h-1.52c-0.01,0.09-0.02,0.18-0.05,0.27c-0.14,0.59-0.68,0.96-1.28,0.89c-0.57-0.06-1-0.55-1.03-1.16h-1.54
				c0.02,0.64-0.51,1.17-1.16,1.17c-0.65,0-1.18-0.53-1.17-1.17h-1.54c-0.02,0.62-0.47,1.12-1.04,1.17
				c-0.61,0.05-1.14-0.32-1.27-0.91c-0.02-0.08-0.03-0.17-0.04-0.26h-1.52c-0.03,0.24-0.08,0.48-0.23,0.68
				c-0.29,0.41-0.81,0.59-1.29,0.45c-0.5-0.15-0.82-0.58-0.85-1.13h-1.54c0.02,0.64-0.53,1.18-1.17,1.17v1.54
				c0.62,0.02,1.12,0.47,1.17,1.04c0.05,0.61-0.32,1.14-0.91,1.27c-0.08,0.02-0.17,0.03-0.26,0.04v1.52
				c0.09,0.01,0.18,0.02,0.27,0.05c0.59,0.14,0.96,0.68,0.89,1.28c-0.06,0.57-0.55,1-1.16,1.03v1.54c0.64-0.02,1.17,0.51,1.17,1.16
				c0,0.65-0.53,1.18-1.17,1.17v1.54c0.63,0.03,1.11,0.47,1.17,1.05c0.05,0.6-0.31,1.13-0.9,1.27c-0.09,0.02-0.18,0.03-0.27,0.05
				v1.52c0.09,0.01,0.17,0.02,0.26,0.04c0.59,0.14,0.96,0.66,0.91,1.27c-0.05,0.58-0.54,1.02-1.17,1.05v1.54
				c0.64-0.02,1.17,0.51,1.17,1.16c0,0.66-0.53,1.19-1.17,1.17v1.54c0.62,0.03,1.11,0.47,1.17,1.05c0.05,0.61-0.32,1.14-0.91,1.27
				c-0.08,0.02-0.17,0.03-0.26,0.04v1.51c0.12,0.02,0.25,0.04,0.37,0.07c0.53,0.17,0.86,0.69,0.8,1.25
				c-0.06,0.55-0.51,0.98-1.09,1.03c-0.02,0-0.05,0-0.07,0v1.54c0.64-0.01,1.18,0.52,1.17,1.17h1.54c0.03-0.63,0.47-1.11,1.05-1.17
				c0.61-0.05,1.14,0.32,1.27,0.91c0.02,0.08,0.03,0.17,0.04,0.26h1.52c0.02-0.12,0.04-0.25,0.07-0.37
				c0.17-0.54,0.71-0.87,1.27-0.79c0.57,0.08,0.98,0.54,1.02,1.16h1.54c-0.01-0.64,0.51-1.17,1.16-1.17c0.66,0,1.19,0.52,1.17,1.17
				h1.54c0.03-0.62,0.47-1.11,1.05-1.17c0.61-0.05,1.14,0.32,1.27,0.91c0.02,0.08,0.03,0.17,0.04,0.26h1.52
				c0.02-0.12,0.04-0.25,0.07-0.37c0.17-0.53,0.69-0.86,1.25-0.8c0.55,0.06,0.98,0.51,1.03,1.09c0,0.02,0,0.05,0,0.07h1.54
				c-0.02-0.64,0.51-1.17,1.16-1.17c0.66,0,1.18,0.52,1.17,1.17h1.54c0.03-0.62,0.47-1.11,1.04-1.17c0.61-0.05,1.14,0.32,1.27,0.91
				c0.02,0.08,0.03,0.17,0.04,0.26h1.51c0.02-0.12,0.04-0.25,0.07-0.37c0.17-0.53,0.69-0.86,1.25-0.8c0.54,0.06,0.97,0.5,1.03,1.08
				c0,0.03,0,0.06,0.01,0.09h1.54c-0.01-0.64,0.52-1.18,1.17-1.17v-1.54c-0.63-0.03-1.11-0.47-1.17-1.05
				c-0.05-0.61,0.32-1.14,0.91-1.27c0.08-0.02,0.17-0.03,0.26-0.04v-1.51c-0.15-0.04-0.32-0.05-0.46-0.11
				c-0.5-0.21-0.79-0.75-0.69-1.27c0.11-0.57,0.55-0.94,1.16-0.97v-1.54c-0.64,0.02-1.17-0.51-1.17-1.16c0-0.66,0.52-1.18,1.17-1.17
				v-1.54c-0.62-0.02-1.12-0.47-1.17-1.05c-0.05-0.61,0.32-1.14,0.91-1.27c0.08-0.02,0.17-0.03,0.26-0.04v-1.52
				c-0.24-0.03-0.48-0.08-0.68-0.23c-0.41-0.3-0.59-0.81-0.45-1.29c0.14-0.49,0.57-0.81,1.13-0.85v-1.54
				c-0.63,0.02-1.17-0.51-1.17-1.16s0.53-1.18,1.17-1.17V9.51c-0.62-0.02-1.12-0.47-1.17-1.05c-0.05-0.61,0.32-1.14,0.91-1.27
				c0.08-0.02,0.17-0.03,0.26-0.04V5.63c-0.15-0.04-0.32-0.05-0.46-0.11c-0.51-0.21-0.79-0.75-0.69-1.27
				C70.61,3.68,71.07,3.3,71.66,3.27z M66.21,15.7c-0.14,0.59-0.28,1.18-0.44,1.77c-0.02,0.09-0.08,0.19-0.15,0.26
				c-3.03,2.95-6.06,5.9-9.09,8.85c-0.03,0.03-0.07,0.05-0.11,0.08c0.01,0.01,0.01,0.03,0.02,0.04c0.17,0.03,0.33,0.06,0.5,0.09
				c0.58,0.08,1.15,0.18,1.73,0.22c0.85,0.06,1.69-0.05,2.52-0.19c1.34-0.23,2.64-0.59,3.9-1.09c0.02-0.01,0.05-0.01,0.09-0.03
				c-0.06,0.29-0.12,0.57-0.18,0.85c-0.21,1-0.43,1.99-0.63,2.99c-0.02,0.11-0.07,0.18-0.18,0.23c-1.02,0.47-2.06,0.86-3.17,1.05
				c-1.04,0.17-2.09,0.22-3.13,0.08c-0.84-0.11-1.67-0.27-2.5-0.37c-1.12-0.14-2.25-0.13-3.35,0.18c-0.13,0.04-0.25,0.09-0.37,0.14
				c-0.11,0.05-0.22,0.11-0.34,0.18c-0.56-0.99-1.12-1.99-1.69-2.99c3.2-3.17,6.4-6.33,9.62-9.53h-0.18c-3.57,0-7.15,0-10.72,0
				c-0.14,0-0.18,0.05-0.21,0.17c-0.68,3.21-1.36,6.41-2.04,9.62c-0.01,0.04-0.02,0.08-0.04,0.13h-4.61
				c0.05-0.24,0.09-0.46,0.14-0.69c0.7-3.29,1.39-6.57,2.09-9.86c0.7-3.32,1.41-6.64,2.11-9.96c0.14-0.67,0.29-1.34,0.42-2.01
				c0.03-0.14,0.08-0.18,0.22-0.18c4.97,0,9.95,0,14.92,0h0.19c-0.33,1.54-0.65,3.06-0.98,4.59h-0.2c-3.42,0-6.85,0-10.27,0
				c-0.14,0-0.18,0.04-0.21,0.17c-0.28,1.33-0.57,2.66-0.85,3.98c-0.01,0.03-0.01,0.06-0.01,0.1h17.43
				C66.39,14.94,66.3,15.32,66.21,15.7z"/>
			<path d="M66.49,14.55c-0.1,0.4-0.19,0.77-0.28,1.15c-0.14,0.59-0.28,1.18-0.44,1.77c-0.02,0.09-0.08,0.19-0.15,0.26
				c-3.03,2.95-6.06,5.9-9.09,8.85c-0.03,0.03-0.07,0.05-0.11,0.08c0.01,0.01,0.01,0.03,0.02,0.04c0.17,0.03,0.33,0.06,0.5,0.09
				c0.58,0.08,1.15,0.18,1.73,0.22c0.85,0.06,1.69-0.05,2.52-0.19c1.34-0.23,2.64-0.59,3.9-1.09c0.02-0.01,0.05-0.01,0.09-0.03
				c-0.06,0.29-0.12,0.57-0.18,0.85c-0.21,1-0.43,1.99-0.63,2.99c-0.02,0.11-0.07,0.18-0.18,0.23c-1.02,0.47-2.06,0.86-3.17,1.05
				c-1.04,0.17-2.09,0.22-3.13,0.08c-0.84-0.11-1.67-0.27-2.5-0.37c-1.12-0.14-2.25-0.13-3.35,0.18c-0.13,0.04-0.25,0.09-0.37,0.14
				c-0.11,0.05-0.22,0.11-0.34,0.18c-0.56-0.99-1.12-1.99-1.69-2.99c3.2-3.17,6.4-6.33,9.62-9.53h-0.18c-3.57,0-7.15,0-10.72,0
				c-0.14,0-0.18,0.05-0.21,0.17c-0.68,3.21-1.36,6.41-2.04,9.62c-0.01,0.04-0.02,0.08-0.04,0.13h-4.61
				c0.05-0.24,0.09-0.46,0.14-0.69c0.7-3.29,1.39-6.57,2.09-9.86c0.7-3.32,1.41-6.64,2.11-9.96c0.14-0.67,0.29-1.34,0.42-2.01
				c0.03-0.14,0.08-0.18,0.22-0.18c4.97,0,9.95,0,14.92,0h0.19c-0.33,1.54-0.65,3.06-0.98,4.59h-0.2c-3.42,0-6.85,0-10.27,0
				c-0.14,0-0.18,0.04-0.21,0.17c-0.28,1.33-0.57,2.66-0.85,3.98c-0.01,0.03-0.01,0.06-0.01,0.1H66.49z"/>
		</g>
		<g>
			<path class="st0" d="M81.27,10.67h8.16l-0.53,2.68h-5l-0.72,3.71h4.7l-0.51,2.63h-4.69l-1.17,6.18h-3.13L81.27,10.67z"/>
			<path class="st0" d="M88.58,25.88l2.1-11.04h3.12l-2.1,11.04H88.58z M91.16,11.93c0-1.01,0.78-1.81,1.78-1.81
				c0.95,0,1.55,0.65,1.54,1.56c-0.01,1.14-0.85,1.8-1.83,1.8C91.74,13.49,91.16,12.86,91.16,11.93z"/>
			<path class="st0" d="M94.25,25.88l3.03-15.89h3.12l-3.03,15.89H94.25z"/>
			<path class="st0" d="M108.59,25.29c-1.19,0.58-2.6,0.79-3.84,0.79c-3.02,0-4.47-1.79-4.47-4.51c0-3.31,2.24-6.97,6.08-6.97
				c2.18,0,3.56,1.33,3.57,3.22c0,2.87-2.64,3.92-6.66,3.81c0,0.32,0.09,0.84,0.32,1.18c0.38,0.53,1.04,0.83,1.94,0.83
				c1.11,0,2.02-0.26,2.84-0.66L108.59,25.29z M105.98,16.96c-1.31,0-2.16,1.2-2.4,2.39c2.21,0.04,3.47-0.38,3.47-1.44
				C107.06,17.34,106.66,16.96,105.98,16.96z"/>
			<path class="st0" d="M109.94,23.94l3.49-4.09c0.88-1.01,1.43-1.55,2.37-2.41l0.03-0.05h-4.28l0.5-2.54h7.88l-0.37,2.06l-3.4,3.97
				c-0.97,1.12-1.57,1.72-2.38,2.42l-0.01,0.05h4.71l-0.5,2.54h-8.39L109.94,23.94z"/>
			<path class="st0" d="M119.7,25.88l2.1-11.04h3.12l-2.1,11.04H119.7z M122.29,11.93c0-1.01,0.78-1.81,1.78-1.81
				c0.95,0,1.55,0.65,1.54,1.56c-0.01,1.14-0.85,1.8-1.83,1.8C122.86,13.49,122.28,12.86,122.29,11.93z"/>
			<path class="st0" d="M125.37,25.88l3.03-15.89h3.12l-3.03,15.89H125.37z"/>
			<path class="st0" d="M131.03,25.88l3.03-15.89h3.12l-3.03,15.89H131.03z"/>
			<path class="st0" d="M143.41,25.88c0.02-0.63,0.08-1.34,0.13-2.09h-0.06c-0.97,1.72-2.28,2.31-3.44,2.31
				c-1.87,0-3.06-1.49-3.06-3.68c0-3.61,2.23-7.81,7.45-7.81c1.25,0,2.57,0.24,3.42,0.52l-1.18,5.88c-0.27,1.38-0.48,3.53-0.45,4.86
				H143.41z M144.38,17.05c-0.24-0.06-0.52-0.09-0.8-0.09c-2.03,0-3.39,2.91-3.4,4.83c0,1.05,0.35,1.78,1.19,1.78
				c0.91,0,1.97-1.15,2.44-3.64L144.38,17.05z"/>
		</g>
	</g>
</g>
</svg>
