<?xml version="1.0" encoding="UTF-8"?>
<svg version="1.1" viewBox="0 0 2440 800" width="1280" height="1280" xmlns="http://www.w3.org/2000/svg">
<path transform="translate(60,23)" d="m0 0h21l3 11 4 6 9 6 11 1 9-3 8-7 3-7 2-6 5-1h27l3 11 5 7 9 5 10 1 9-3 4-3h2v-2h2l2-5 3-10 1-1h31l4 11 4 6 9 6 4 1h7l10-4 6-5 4-8 2-6 4-1h28l2 9 5 8 9 6 11 1 9-3 8-7 3-7 2-6 1-1h31l3 11 5 7 9 5 11 1 10-4 5-4 4-8 3-8h31l4 11 4 6 5 4 8 3h7l10-4 6-5 4-8 2-6 4-1h28l2 9 5 8 9 6 11 1 9-3 8-7 3-7 2-6 1-1h31l3 11 5 7 9 5 4 1h7l10-4 7-7 4-12 5-1h24l3 1 4 10 7 8 6 4 8 4v30l-14 6-6 7-3 8v9l5 10 7 6 10 4 1 1v30l-12 5-5 4-5 8-1 4v9l4 9 4 5 10 5 5 2v31l-11 4-8 7-4 9v10l5 10 9 7 9 4v30l-14 6-6 7-3 8v9l5 10 7 6 11 4v32l-12 4-7 6-4 10v9l4 9 4 5 8 4 7 3v31l-11 4-8 7-4 9v10l5 10 8 6 10 4v31l-14 6-6 7-3 8v9l5 10 7 6 11 4v31l-12 5-7 6-4 9v11l5 10 5 4 8 4 5 2v30l-9 4-8 6-4 5-4 10-1 1h-30l-2-4-2-6-4-6-6-5-6-2h-12l-6 3h-2v2l-5 5-4 9-2 4h-31l-2-7-3-6-4-5-10-5-7-1-8 2-8 6-5 8-3 8h-31l-3-9-6-8-7-5-9-2-9 2-6 4-6 7-2 4-2 7h-31l-5-12-6-7-5-3-12-2-8 3-6 4-5 7-4 10h-30l-2-2-3-10-5-6-10-5-7-1-8 2-8 6-5 8-3 8h-31l-3-9-6-8-7-5-9-2-9 2-6 4-6 7-2 4-2 7h-31l-5-12-6-7-5-3-4-1h-12l-6 3h-2v2l-5 5-4 9-2 4h-31l-2-7-3-6-5-5-6-4-10-2-8 2-8 6-5 8-3 8h-31l-5-12-5-5-6-5-9-4v-31l10-3 9-8 3-6 1-4v-7l-3-8-5-7-10-5-5-2-1-5 1-26 9-3 8-6 5-8 1-4v-7l-3-9-7-8-7-3-6-1-1-2v-25l2-6 9-3 8-6 4-7 1-4v-8l-4-10-8-7-11-4-1-2 1-30 10-3 6-5h2l2-5 3-8v-7l-3-8-5-7-10-5-5-1-1-2v-25l2-6 8-2 8-6 5-8 1-4v-7l-3-9-7-8-7-3-6-1-1-2v-25l2-6 9-3 8-6 4-7 1-4v-7l-3-9-6-7-7-4-7-2-1-2v-23l1-7 10-3 9-8 3-6 1-4v-7l-3-8-5-7-10-5-5-1-1-2v-23l1-7 9-3 8-6 5-8 1-10-3-10-6-7-8-4-6-1-1-7 1-24 1-2 9-3 9-8 4-7 2-6z" fill="#FEFEFE"/>
<path transform="translate(224,128)" d="m0 0h320l3 4-1 4-3 15-2 6-1 11-3 8-2 11-2 5-1 12-3 8-2 11-4 5-218 1-4 5-1 15-3 7-1 9-3 7-1 12-3 8-2 11-2 5-1 7 364 1v7l-3 10-2 10-2 6-2 10-2 5-1 9-6 11-6 7-6 5-6 7-7 6-5 6-7 6-5 6-7 6-18 18-8 5-6 5-32 32-5 6-7 6-5 6-7 6-5 6-7 6-5 6-6 5-6 7-8 7-4 5-7 6-4 4v2h17l2 5 68-1 1-3 22-2 3-2 13-2 8-3 8-1 3-2 9-2 3-2 11-3 10-2 1 1v7l-3 8-1 13-3 9-1 11-3 8-1 10-3 5-1 11-2 2-7 3-9 2-4 3-7 3-10 2-5 3-11 1-1 2-5 1-14 1-1 2-5 1h-62l-2-3-26-1-2-3-30-1-2-3h-18l-2 3-30 1-3 3-9 1-4 3-5-1-4-5-10-21-6-7-11-23-2-4 7-8 40-40h2l2-4h2l2-4h2l2-4h2l2-4h2l2-4h2l2-4h2l2-4h2l2-4h2l2-4h2l2-4h2l2-4h2l2-4h2l2-4h2l2-4h2l2-4h2l2-4h2l2-4h2l2-4h2l2-4h2l2-4h2l2-4 65-65 1-2-227 1-1 11-3 9-1 11-3 8-2 11-2 6-1 11-3 9-1 11-3 8-1 9-3 8-1 11-3 8-1 12-3 8-1 9-3 8-1 12-3 6-1 14-4 6-2 1h-93l-1-1v-11l3-7 1-16 3-1 1-14 1-2h2l1-19 3-1 1-19 3-1 1-19 3-1 1-14 1-2h2l1-19 3-1 1-19 3-1 1-19 3-1 1-14 1-2h2l1-18 1-2h2l1-18 1-2h2l1-18 1-2h2l1-19 3-1 1-14 2-2 1-4 1-14 1-2h2l1-18 1-2h2l1-18 1-2h2l1-18 1-2h2l1-14 2-2 1-4 1-14 1-2h2l1-18 1-2h2l1-18 1-2h2l1-18z"/>
<path transform="translate(2262,300)" d="m0 0h38l22 3 28 6 6 3v8l-2 5-3 20-2 10-2 11-9 39-4 20-2 19-2 5-2 29-2 10-1 12-1 32-2 4h-58l-1-1v-40l-5 3-8 11-6 7-14 11-16 9-9 1-5 3h-28l-4-2-8-2-8-4-9-7-4-3v-2h-2l-9-12-5-11-4-13-2-17v-11l2-24 2-9 2-10 6-18 12-23 8-12 9-11h2l2-4 9-9 13-9 11-7 14-7 18-6 26-6zm-9 51-8 2-16 8-12 11-9 10-12 20-4 11-2 8-1 1-1 13v29l4 10 7 8 9 5h13l12-6 11-9 8-11 8-14 5-14 3-12 11-48 3-16-1-4-6-2z" fill="#FDFDFD"/>
<path transform="translate(882,216)" d="m0 0h134l45 1 2 2-1 11-7 35-3 10-6 1-112 1-2 19-2 4-2 18-3 9-3 20 1 4h106l1 5-2 17-3 11-4 18-4 4-9 1h-93l-5 1-3 17-8 38-5 25-3 21-1 2-2 18-3 5-2 2h-63l-1-5 3-11 2-18 2-6 3-20 10-48 4-23 4-22 2-12 9-42 5-29 4-24 5-25 7-31 1-3z" fill="#FDFDFD"/>
<path transform="translate(1419,300)" d="m0 0h27l14 3 16 6 11 6 9 8 10 13 3 7 2 6 1 2v35l-2 2-2 10-12 17-6 5-21 12-10 4-15 4-15 2-13 2-40 1-10 1-1 2v9l8 16v2l5 2 7 5 9 4 10 1h26l13-1 17-5 12-5 6-1 2 4 4 34v7l-5 4-17 7-11 3-5 2-20 2-12 2h-29l-24-4-21-10-12-8-8-9-10-14-3-6-4-12-4-24v-20l5-30 3-9 4-10 11-21 7-11 16-17 10-9 14-10 18-8 25-7zm-1 48-13 4-15 8-8 9-6 9-4 10v7l5 1 43-1 2-2 12-2 9-6 4-5 3-8-1-9-3-7-6-5-10-3z" fill="#FDFDFD"/>
<path transform="translate(1563,306)" d="m0 0h174l3 2-5 29-4 14-4 5-8 7-15 16-11 11-7 8-8 8-8 10-15 15-7 8-10 9-7 8-9 8-10 8-6 5-1 2 89 1 15 1 1 1-1 12-1 11-3 10-3 16-3 5h-186l-2-2 1-12 6-26 13-16 5-6h2l2-4 6-7h2l2-4 17-17 7-8 7-7 7-10h2v-2l8-7 12-13 11-9 10-10 10-8 5-5 1-3h-90l-4-2-1-6 6-26 2-16z" fill="#FEFEFE"/>
<path transform="translate(2057,200)" d="m0 0h49l12 1 1 1v7l-4 23-2 11-2 12-1 2-2 18-3 10-5 25-7 37-1 10-2 5-2 18-3 10-5 25-6 29-2 17-2 5-2 19-2 4-5 25-4 19-2 3h-63l-1-1 1-13 7-34 3-14 2-17 2-6 2-17 3-11 8-39 4-23 2-11 2-12 2-11 10-48 4-23 3-14 2-16 3-13 2-9z" fill="#FDFDFD"/>
<path transform="translate(1942,200)" d="m0 0h46l7 1 1 3-3 14-1 11-2 5-2 18-4 16-7 34-3 14-3 21-1 2-2 18-3 10-3 16-5 23-4 22-2 13-1 2-2 18-3 10-5 25-5 26-3 13-1 1h-63l-1-1v-13l4-18 6-28 6-32 2-13 2-11 2-12 7-32 5-26 2-11 2-12 2-11 2-12 9-41 3-17 3-20 2-6 1-13 2-5 1-1z" fill="#FDFDFD"/>
<path transform="translate(1237,200)" d="m0 0h54l7 1 1 1-1 11-3 18-3 20-2 6-2 18-3 10-8 40-4 22-2 12-2 11-1 10-3 10-8 39-3 14-2 18-2 5-2 19-2 4-5 25-4 19-2 3h-63l-1-1 1-13 7-34 3-14 2-17 2-6 2-17 3-11 8-39 4-23 4-22 2-12 10-48 4-23 3-14 3-20 4-18z" fill="#FDFDFD"/>
<path transform="translate(1090,306)" d="m0 0h63l1 1-1 11-1 13-2 5-2 18-3 10-5 25-5 26-2 11-1 11-2 4-2 18-3 10-5 25-5 26-3 15-1 1h-64v-14l2-11 6-28 6-31 2-12 2-11 2-12 2-11 6-28 4-21 3-13 2-17 2-7 2-13z" fill="#FDFDFD"/>
<path transform="translate(1785,306)" d="m0 0h63l3 2-2 10-1 14-3 9-8 40-3 14-2 18-2 5-2 19-3 9-5 25-5 26-4 24-2 9-2 6h-63l-1-1v-14l2-10 2-11 2-12 7-32 5-26 3-21 2-6 2-17 4-17 7-34 5-28z" fill="#FDFDFD"/>
<path transform="translate(1133,205)" d="m0 0h8l12 3 6 4 5 4 4 7 2 9v10l-2 12-7 9-9 7-12 5-4 1h-11l-16-8-5-6-5-13v-12l4-13 6-8 6-5 8-4z" fill="#FCFCFC"/>
<path transform="translate(1829,205)" d="m0 0h8l12 3 8 6 6 8 4 15-3 15-5 8-8 8-10 5-9 3h-11l-12-5-8-7-5-10-1-4v-14l5-14 9-10 10-5z" fill="#FEFDFD"/>
</svg>
