<?xml version="1.0" encoding="utf-8"?>
<!-- Generator: Adobe Illustrator 28.2.0, SVG Export Plug-In . SVG Version: 6.00 Build 0)  -->
<svg version="1.1" id="Слой_1" xmlns="http://www.w3.org/2000/svg" xmlns:xlink="http://www.w3.org/1999/xlink" x="0px" y="0px"
	 viewBox="0 0 184 36" style="enable-background:new 0 0 184 36;" xml:space="preserve">
<style type="text/css">
	.st0{fill:#FFFFFF;}
</style>
<g>
	<path class="st0" d="M43.44,20.7c0,1.41-0.03,2.72,0.01,4.03c0.04,1.6,0.14,3.19,0.19,4.78c0.06,1.66,0.08,3.32,0.17,4.97
		c0.03,0.52-0.17,0.83-0.58,1.1c-0.66,0.42-1.39,0.53-2.08,0.3c-0.97-0.33-1.32-0.6-1.27-1.68c0.19-4.25,0.33-8.5,0.48-12.75
		c0.01-0.21,0-0.42,0-0.77c-0.31,0.16-0.53,0.25-0.73,0.38c-3.58,2.22-7.16,4.45-10.74,6.67c-1.04,0.65-2.07,0.39-2.61-0.73
		c-0.2-0.41-0.27-0.89-0.33-1.34c-0.07-0.53,0.18-0.89,0.69-1.15c3.82-2.01,7.63-4.05,11.44-6.08c0.2-0.11,0.4-0.23,0.7-0.41
		c-0.29-0.18-0.51-0.33-0.74-0.45c-3.73-1.99-7.47-3.98-11.21-5.97c-0.9-0.48-1.21-1.06-0.82-2.01c0.22-0.54,0.66-1.03,1.1-1.43
		c0.45-0.41,0.96-0.41,1.55-0.03c3.59,2.28,7.22,4.51,10.84,6.76c0.23,0.14,0.47,0.26,0.8,0.45c0.02-0.3,0.05-0.5,0.05-0.7
		C40.24,10.82,40.11,7,39.98,3.17c-0.01-0.42-0.08-0.85-0.09-1.27C39.85,0.7,40.63-0.07,41.85,0c0.35,0.02,0.72,0.12,1.05,0.25
		c0.62,0.25,0.95,0.65,0.92,1.41c-0.17,4.31-0.28,8.63-0.41,12.94c-0.01,0.21,0,0.42,0,0.75c0.34-0.19,0.6-0.31,0.84-0.46
		c3.51-2.18,7.01-4.36,10.52-6.54c0.45-0.28,0.84-0.73,1.49-0.41c0.73,0.36,1.29,0.86,1.48,1.65c0.22,0.93,0.16,1.53-0.88,2.07
		c-3.75,1.92-7.45,3.94-11.16,5.92c-0.22,0.12-0.43,0.26-0.73,0.44c0.28,0.16,0.49,0.3,0.7,0.41c3.72,1.98,7.43,3.97,11.15,5.95
		c0.93,0.5,1.24,1.06,0.88,2.05c-0.19,0.53-0.6,1.02-1.02,1.4c-0.47,0.43-1.02,0.43-1.63,0.04c-3.62-2.28-7.26-4.53-10.89-6.79
		C43.94,20.97,43.72,20.86,43.44,20.7z"/>
	<path class="st0" d="M88.36,22.95c-2.57,3.37-6.43,2.8-8.5,0.91c-2.49-2.27-2.56-6.1-0.18-8.41c2.05-1.98,6.03-2.71,8.64,0.88
		c0-0.79,0-1.47,0-2.17c0.44,0,0.79,0,1.2,0c0,3.6,0,7.2,0,10.84c-0.38,0-0.73,0-1.16,0C88.36,24.32,88.36,23.64,88.36,22.95z
		 M83.75,15c-2.55,0.01-4.56,2.06-4.53,4.62c0.02,2.54,2.04,4.56,4.54,4.56c2.54,0,4.6-2.09,4.58-4.67
		C88.32,17.02,86.26,14.99,83.75,15z"/>
	<path class="st0" d="M157.96,17.67c-2.9,1.54-5.8,3.08-8.7,4.63c1.47,2.45,5.3,2.59,7.14,0.3c0.07-0.08,0.13-0.17,0.19-0.25
		c0.57-0.8,0.57-0.8,1.55-0.37c-0.77,2.3-3.5,3.8-6.18,3.4c-2.71-0.4-4.83-2.85-4.87-5.65c-0.05-2.75,1.84-5.02,4.6-5.53
		C154.27,13.71,157.1,15.27,157.96,17.67z M156.33,17.17c-1.41-1.97-4.13-2.47-6.06-1.18c-1.65,1.1-2.46,3.77-1.56,5.21
		C151.23,19.87,153.76,18.53,156.33,17.17z"/>
	<path class="st0" d="M133.15,25.37c-3.19,0.01-5.83-2.59-5.84-5.77c-0.01-3.17,2.61-5.8,5.81-5.81c3.19-0.01,5.84,2.6,5.85,5.77
		C138.97,22.73,136.34,25.37,133.15,25.37z M133.1,15c-2.51,0.02-4.52,2.05-4.52,4.57c0,2.56,2.03,4.62,4.55,4.61
		c2.52,0,4.57-2.07,4.56-4.62C137.69,17.02,135.64,14.98,133.1,15z"/>
	<path class="st0" d="M103.42,19.55c0.01-3.16,2.62-5.75,5.78-5.76c3.22-0.01,5.9,2.65,5.87,5.82c-0.03,3.17-2.68,5.77-5.87,5.76
		C106,25.36,103.4,22.74,103.42,19.55z M104.68,19.6c0.01,2.55,2.06,4.6,4.59,4.58c2.52-0.02,4.56-2.12,4.53-4.65
		c-0.03-2.52-2.05-4.54-4.56-4.54C106.69,15,104.67,17.04,104.68,19.6z"/>
	<path class="st0" d="M101.56,25c-0.36,0-0.73,0-1.17,0c0-0.27,0-0.5,0-0.73c0-2,0.01-4,0-6c-0.01-1.87-1.17-3.14-2.96-3.26
		c-1.92-0.13-3.69,1.12-3.82,2.89c-0.14,1.88-0.06,3.78-0.08,5.67c0,0.46,0,0.93,0,1.42c-0.42,0-0.78,0-1.18,0c0-3.6,0-7.21,0-10.84
		c0.37,0,0.73,0,1.15,0c0,0.57,0,1.13,0,1.86c0.2-0.22,0.29-0.31,0.37-0.42c1.15-1.55,2.92-2.15,4.81-1.63
		c1.74,0.48,2.83,1.74,2.91,3.74c0.1,2.38,0.03,4.76,0.03,7.14C101.63,24.9,101.59,24.94,101.56,25z"/>
	<path class="st0" d="M126.33,15.49c-0.27,0.26-0.54,0.52-0.82,0.78c-2.55-2.15-5.31-1.28-6.64,0.24c-1.51,1.71-1.53,4.34,0,6.13
		c1.62,1.9,4,1.99,6.7,0.23c0.23,0.26,0.46,0.53,0.7,0.8c-1.72,2.1-5.56,2.27-7.78,0.32c-2.54-2.24-2.74-6-0.44-8.41
		C120.28,13.26,124.11,13.2,126.33,15.49z"/>
	<path class="st0" d="M67.55,15.38c-0.45-0.02-0.83-0.04-1.25-0.06c0-0.39,0-0.76,0-1.18c0.4,0,0.77,0,1.22,0
		c0.11-0.95-0.36-2.21,1.23-2.35c0,0.73,0,1.48,0,2.31c0.78,0,1.51,0,2.28,0c0,0.44,0,0.81,0,1.26c-0.74,0-1.47,0-2.26,0
		c0,1.98,0,3.89,0,5.8c0,0.08,0,0.17,0,0.25c0,2.23,0.04,2.27,2.26,2.46c0.01,0.17,0.03,0.36,0.03,0.54c0,0.19-0.02,0.37-0.04,0.69
		c-0.69-0.09-1.37-0.07-1.96-0.28c-1.12-0.4-1.52-1.34-1.52-2.48c0-2.06,0-4.12,0-6.18C67.55,15.93,67.55,15.69,67.55,15.38z"/>
	<path class="st0" d="M141.15,14.16c0.41,0,0.76,0,1.17,0c0,0.44,0,0.86,0,1.45c1.1-1.63,2.47-2.12,4.24-1.6
		c-0.14,0.38-0.26,0.72-0.36,1c-0.58,0.03-1.13-0.02-1.63,0.09c-1.32,0.3-2.23,1.5-2.24,2.91c-0.01,2.09,0,4.17,0,6.26
		c0,0.23,0,0.46,0,0.74c-0.41,0-0.78,0-1.18,0C141.15,21.39,141.15,17.8,141.15,14.16z"/>
	<path class="st0" d="M74.2,14.15c0.41,0,0.77,0,1.17,0c0,3.61,0,7.21,0,10.85c-0.39,0-0.76,0-1.17,0
		C74.2,21.39,74.2,17.8,74.2,14.15z"/>
	<path class="st0" d="M74.8,10.56c0.43,0,0.81,0.39,0.8,0.82c-0.01,0.43-0.4,0.85-0.82,0.81c-0.47-0.05-0.79-0.31-0.8-0.82
		C73.98,10.93,74.36,10.56,74.8,10.56z"/>
</g>
</svg>
