<?xml version="1.0" encoding="utf-8"?>
<!-- Generator: Adobe Illustrator 28.2.0, SVG Export Plug-In . SVG Version: 6.00 Build 0)  -->
<svg version="1.1" id="Слой_1" xmlns="http://www.w3.org/2000/svg" xmlns:xlink="http://www.w3.org/1999/xlink" x="0px" y="0px"
	 viewBox="0 0 566.93 566.93" style="enable-background:new 0 0 566.93 566.93;" xml:space="preserve">
<style type="text/css">
	.st0{fill:#FFFFFF;}
</style>
<g>
	<path class="st0" d="M189.79,208.58v-7.83c-3.23,0.1-6.01-2.68-5.91-5.91h-7.83c-0.13,3.13-2.31,5.59-5.22,5.91
		c-3.06,0.33-5.77-1.55-6.51-4.53c-0.11-0.45-0.16-0.92-0.23-1.38h-7.68c-0.08,0.46-0.12,0.93-0.23,1.37
		c-0.73,2.98-3.45,4.86-6.51,4.53c-2.91-0.31-5.1-2.79-5.22-5.91h-7.83c0.09,3.23-2.6,5.94-5.91,5.94c-3.3,0-6-2.71-5.91-5.94h-7.83
		c-0.13,3.12-2.31,5.59-5.23,5.91c-3.05,0.33-5.78-1.56-6.51-4.53c-0.11-0.45-0.16-0.91-0.23-1.37h-7.68
		c-0.08,0.46-0.12,0.93-0.23,1.38c-0.73,2.98-3.45,4.86-6.51,4.53c-2.91-0.31-5.09-2.78-5.23-5.91h-7.83
		c0.1,3.22-2.6,5.93-5.91,5.94c-3.3,0-6-2.71-5.91-5.94h-7.83c-0.11,3.14-2.37,5.65-5.3,5.91c-3.09,0.28-5.76-1.64-6.46-4.61
		c-0.1-0.43-0.14-0.87-0.21-1.3h-7.68c-0.13,1.23-0.41,2.41-1.15,3.44c-1.49,2.07-4.1,2.98-6.52,2.27
		c-2.52-0.74-4.16-2.93-4.29-5.71h-7.83c0.09,3.24-2.68,6.01-5.91,5.91v7.83c3.14,0.12,5.66,2.37,5.91,5.3
		c0.27,3.09-1.63,5.76-4.61,6.46c-0.43,0.1-0.87,0.14-1.3,0.21v7.68c0.46,0.08,0.93,0.12,1.38,0.23c2.98,0.73,4.86,3.45,4.53,6.51
		c-0.32,2.91-2.77,5.08-5.91,5.23v7.83c3.22-0.1,5.93,2.6,5.93,5.91c0,3.31-2.71,6.01-5.93,5.91v7.83c3.17,0.16,5.65,2.38,5.91,5.3
		c0.28,3.06-1.59,5.71-4.54,6.43c-0.45,0.11-0.91,0.16-1.37,0.23v7.68c0.43,0.07,0.88,0.11,1.3,0.21c2.98,0.69,4.89,3.37,4.61,6.45
		c-0.26,2.93-2.74,5.16-5.91,5.3v7.83c3.22-0.08,5.92,2.59,5.93,5.87c0.02,3.32-2.67,6.02-5.93,5.95v7.83
		c3.16,0.15,5.65,2.37,5.91,5.3c0.28,3.08-1.63,5.76-4.61,6.45c-0.43,0.1-0.87,0.14-1.3,0.21v7.68c0.62,0.12,1.27,0.18,1.86,0.38
		c2.7,0.87,4.35,3.51,4.04,6.36c-0.31,2.79-2.6,4.94-5.54,5.21c-0.12,0.01-0.24,0.01-0.37,0.02v7.83c3.25-0.07,5.97,2.65,5.91,5.91
		h7.83c0.16-3.17,2.37-5.65,5.3-5.91c3.08-0.28,5.76,1.63,6.45,4.61c0.1,0.43,0.14,0.87,0.21,1.3h7.68
		c0.12-0.62,0.18-1.27,0.38-1.86c0.88-2.72,3.6-4.41,6.43-4.03c2.91,0.38,4.98,2.75,5.16,5.89h7.83c-0.08-3.23,2.59-5.92,5.87-5.93
		c3.33-0.01,6.01,2.66,5.95,5.93h7.83c0.14-3.16,2.37-5.65,5.3-5.91c3.08-0.28,5.76,1.63,6.45,4.61c0.1,0.43,0.14,0.87,0.21,1.3
		h7.68c0.12-0.62,0.18-1.27,0.38-1.87c0.88-2.69,3.51-4.35,6.36-4.04c2.78,0.31,4.94,2.6,5.21,5.53c0.01,0.12,0.01,0.25,0.02,0.37
		h7.83c-0.08-3.22,2.59-5.92,5.86-5.93c3.33-0.01,6,2.65,5.95,5.93h7.83c0.13-3.15,2.37-5.64,5.3-5.91
		c3.08-0.28,5.76,1.63,6.45,4.61c0.1,0.43,0.14,0.86,0.22,1.3h7.68c0.12-0.62,0.18-1.27,0.38-1.87c0.87-2.69,3.51-4.35,6.36-4.04
		c2.75,0.31,4.9,2.55,5.2,5.46c0.02,0.15,0.02,0.29,0.03,0.44h7.83c-0.07-3.25,2.66-5.98,5.91-5.91v-7.83
		c-3.18-0.16-5.65-2.38-5.91-5.3c-0.27-3.09,1.64-5.76,4.61-6.45c0.43-0.1,0.87-0.14,1.3-0.21v-7.68c-0.78-0.18-1.61-0.27-2.34-0.57
		c-2.56-1.06-4.02-3.81-3.52-6.46c0.54-2.87,2.8-4.77,5.86-4.94v-7.83c-3.22,0.08-5.92-2.59-5.93-5.87
		c-0.02-3.32,2.66-6.01,5.93-5.95v-7.83c-3.14-0.12-5.65-2.37-5.91-5.3c-0.27-3.09,1.63-5.76,4.61-6.45c0.43-0.1,0.87-0.14,1.3-0.21
		v-7.68c-1.23-0.14-2.41-0.41-3.44-1.15c-2.07-1.5-2.98-4.09-2.27-6.52c0.73-2.51,2.89-4.13,5.71-4.3v-7.83
		c-3.21,0.12-5.93-2.59-5.93-5.9s2.7-6,5.93-5.91v-7.83c-3.14-0.12-5.66-2.38-5.91-5.3c-0.27-3.09,1.64-5.77,4.61-6.46
		c0.43-0.1,0.87-0.14,1.3-0.21v-7.68c-0.78-0.18-1.61-0.26-2.34-0.56c-2.56-1.07-4.02-3.81-3.52-6.46
		C184.46,210.65,186.75,208.73,189.79,208.58z M162.14,271.56c-0.73,2.99-1.44,5.97-2.21,8.95c-0.12,0.47-0.4,0.96-0.74,1.29
		c-15.36,14.96-30.73,29.9-46.1,44.85c-0.16,0.15-0.36,0.26-0.54,0.39c0.03,0.07,0.06,0.14,0.09,0.21c0.85,0.15,1.7,0.33,2.55,0.44
		c2.92,0.39,5.84,0.92,8.77,1.12c4.29,0.28,8.55-0.24,12.78-0.96c6.78-1.14,13.38-2.98,19.77-5.53c0.11-0.05,0.23-0.07,0.46-0.14
		c-0.31,1.48-0.59,2.89-0.89,4.29c-1.07,5.05-2.16,10.09-3.22,15.15c-0.12,0.58-0.37,0.92-0.93,1.17
		c-5.15,2.39-10.43,4.37-16.05,5.3c-5.27,0.88-10.58,1.09-15.89,0.42c-4.24-0.54-8.45-1.34-12.7-1.87
		c-5.7-0.71-11.39-0.68-16.98,0.93c-0.64,0.18-1.26,0.43-1.86,0.7c-0.58,0.26-1.13,0.58-1.75,0.9c-2.85-5.04-5.69-10.06-8.56-15.14
		c16.22-16.06,32.42-32.1,48.78-48.3h-0.92c-18.12,0-36.23,0.01-54.35-0.02c-0.7,0-0.91,0.24-1.04,0.86
		c-3.45,16.25-6.91,32.51-10.37,48.76c-0.05,0.21-0.12,0.42-0.18,0.67H36.69c0.24-1.2,0.47-2.34,0.71-3.49
		c3.53-16.66,7.06-33.33,10.6-49.99c3.57-16.83,7.14-33.66,10.71-50.49c0.72-3.39,1.45-6.78,2.13-10.18
		c0.14-0.7,0.39-0.93,1.14-0.93c25.21,0.02,50.41,0.02,75.62,0.02h0.97c-1.66,7.81-3.3,15.51-4.95,23.27h-0.99
		c-17.35,0-34.71,0.01-52.06-0.02c-0.68,0-0.91,0.2-1.04,0.85c-1.42,6.73-2.87,13.46-4.3,20.19c-0.03,0.14-0.03,0.29-0.05,0.53
		h88.38C163.06,267.74,162.6,269.65,162.14,271.56z"/>
	<path d="M163.55,265.74c-0.49,2.01-0.94,3.92-1.41,5.82c-0.73,2.99-1.44,5.97-2.21,8.95c-0.12,0.47-0.4,0.96-0.74,1.29
		c-15.36,14.96-30.73,29.9-46.1,44.85c-0.16,0.15-0.36,0.26-0.54,0.39c0.03,0.07,0.06,0.14,0.09,0.21c0.85,0.15,1.7,0.33,2.55,0.44
		c2.92,0.39,5.84,0.92,8.77,1.12c4.29,0.28,8.55-0.24,12.78-0.96c6.78-1.14,13.38-2.98,19.77-5.53c0.11-0.05,0.23-0.07,0.46-0.14
		c-0.31,1.48-0.59,2.89-0.89,4.29c-1.07,5.05-2.16,10.09-3.22,15.15c-0.12,0.58-0.37,0.92-0.93,1.17
		c-5.15,2.39-10.43,4.37-16.05,5.3c-5.27,0.88-10.58,1.09-15.89,0.42c-4.24-0.54-8.45-1.34-12.7-1.87
		c-5.7-0.71-11.39-0.68-16.98,0.93c-0.64,0.18-1.26,0.43-1.86,0.7c-0.58,0.26-1.13,0.58-1.75,0.9c-2.85-5.04-5.69-10.06-8.56-15.14
		c16.22-16.06,32.42-32.1,48.78-48.3h-0.92c-18.12,0-36.23,0.01-54.35-0.02c-0.7,0-0.91,0.24-1.04,0.86
		c-3.45,16.25-6.91,32.51-10.37,48.76c-0.05,0.21-0.12,0.42-0.18,0.67H36.69c0.24-1.2,0.47-2.34,0.71-3.49
		c3.53-16.66,7.06-33.33,10.6-49.99c3.57-16.83,7.14-33.66,10.71-50.49c0.72-3.39,1.45-6.78,2.13-10.18
		c0.14-0.7,0.39-0.93,1.14-0.93c25.21,0.02,50.41,0.02,75.62,0.02h0.97c-1.66,7.81-3.3,15.51-4.95,23.27h-0.99
		c-17.35,0-34.71,0.01-52.06-0.02c-0.68,0-0.91,0.2-1.04,0.85c-1.42,6.73-2.87,13.46-4.3,20.19c-0.03,0.14-0.03,0.29-0.05,0.53
		H163.55z"/>
</g>
<g>
	<path class="st0" d="M216.8,239.84h41.34l-2.67,13.59h-25.34l-3.67,18.82h23.85l-2.58,13.33h-23.76l-5.94,31.32h-15.85
		L216.8,239.84z"/>
	<path class="st0" d="M253.88,316.9l10.65-55.96h15.81l-10.65,55.96H253.88z M266.97,246.22c0.02-5.12,3.97-9.16,9-9.16
		c4.81,0,7.84,3.28,7.82,7.91c-0.05,5.8-4.33,9.15-9.26,9.15C269.89,254.11,266.94,250.91,266.97,246.22z"/>
	<path class="st0" d="M282.62,316.9l15.37-80.56h15.82l-15.38,80.56H282.62z"/>
	<path class="st0" d="M355.31,313.92c-6.04,2.93-13.2,4.02-19.47,4.02c-15.33,0-22.64-9.06-22.64-22.85
		c0-16.78,11.35-35.31,30.84-35.31c11.03,0,18.05,6.75,18.1,16.34c0,14.53-13.4,19.89-33.75,19.33c0.01,1.6,0.45,4.25,1.63,5.97
		c1.91,2.69,5.28,4.22,9.81,4.22c5.63,0,10.26-1.31,14.39-3.32L355.31,313.92z M342.08,271.69c-6.65,0-10.92,6.08-12.16,12.13
		c11.2,0.19,17.61-1.95,17.61-7.28C347.53,273.61,345.5,271.69,342.08,271.69z"/>
	<path class="st0" d="M362.13,307.06l17.68-20.75c4.46-5.12,7.24-7.84,12.04-12.22l0.15-0.27h-21.71l2.53-12.89h39.95l-1.85,10.43
		l-17.21,20.1c-4.9,5.67-7.93,8.7-12.04,12.29l-0.05,0.25h23.89l-2.54,12.89h-42.52L362.13,307.06z"/>
	<path class="st0" d="M411.64,316.9l10.65-55.96h15.81l-10.65,55.96H411.64z M424.74,246.22c0.02-5.12,3.97-9.16,9-9.16
		c4.81,0,7.84,3.28,7.82,7.91c-0.05,5.8-4.33,9.15-9.26,9.15C427.66,254.11,424.7,250.91,424.74,246.22z"/>
	<path class="st0" d="M440.39,316.9l15.37-80.56h15.82l-15.38,80.56H440.39z"/>
	<path class="st0" d="M469.08,316.9l15.37-80.56h15.82l-15.38,80.56H469.08z"/>
	<path class="st0" d="M531.85,316.9c0.12-3.19,0.4-6.77,0.66-10.58h-0.31c-4.93,8.74-11.56,11.73-17.45,11.73
		c-9.47,0-15.5-7.54-15.5-18.67c0-18.28,11.31-39.61,37.78-39.61c6.36,0,13.04,1.22,17.36,2.65l-6,29.83
		c-1.36,6.99-2.41,17.91-2.26,24.63H531.85z M536.73,272.18c-1.22-0.28-2.64-0.44-4.03-0.44c-10.27,0-17.21,14.75-17.24,24.49
		c-0.02,5.32,1.76,9.01,6.01,9.01c4.59,0,9.97-5.82,12.36-18.47L536.73,272.18z"/>
</g>
</svg>
