<?xml version="1.0" encoding="utf-8"?>
<!-- Generator: Adobe Illustrator 28.2.0, SVG Export Plug-In . SVG Version: 6.00 Build 0)  -->
<svg version="1.1" id="Слой_1" xmlns="http://www.w3.org/2000/svg" xmlns:xlink="http://www.w3.org/1999/xlink" x="0px" y="0px"
	 viewBox="0 0 566.93 566.93" style="enable-background:new 0 0 566.93 566.93;" xml:space="preserve">
<style type="text/css">
	.st0{fill:#FFFFFF;}
</style>
<g>
	<path class="st0" d="M268.03,304.48c-10.91,14.32-27.29,11.87-36.07,3.88c-10.56-9.62-10.88-25.91-0.76-35.69
		c8.71-8.42,25.58-11.52,36.69,3.73c0-3.34,0-6.23,0-9.23c1.85,0,3.36,0,5.09,0c0,15.3,0,30.57,0,46c-1.6,0-3.11,0-4.94,0
		C268.03,310.29,268.03,307.39,268.03,304.48z M248.46,270.72c-10.82,0.04-19.35,8.73-19.24,19.62c0.1,10.77,8.64,19.35,19.28,19.36
		c10.78,0.02,19.53-8.89,19.45-19.81C267.86,279.3,259.09,270.67,248.46,270.72z"/>
	<path class="st0" d="M563.4,282.04c-12.29,6.53-24.61,13.08-36.93,19.63c6.22,10.4,22.51,11,30.31,1.27
		c0.28-0.35,0.55-0.72,0.81-1.08c2.44-3.39,2.44-3.39,6.59-1.59c-3.26,9.75-14.85,16.14-26.24,14.45
		c-11.52-1.71-20.49-12.11-20.69-23.99c-0.2-11.67,7.83-21.31,19.53-23.46C547.74,265.25,559.77,271.86,563.4,282.04z
		 M556.47,279.93c-6-8.36-17.52-10.47-25.74-4.99c-7,4.67-10.44,15.98-6.62,22.11C534.84,291.38,545.57,285.7,556.47,279.93z"/>
	<path class="st0" d="M458.1,314.75c-13.55,0.03-24.73-11.01-24.79-24.5c-0.05-13.47,11.09-24.63,24.64-24.67
		c13.54-0.04,24.77,11.05,24.82,24.51C482.83,303.53,471.64,314.72,458.1,314.75z M457.89,270.72
		c-10.64,0.07-19.19,8.72-19.18,19.41c0.01,10.85,8.63,19.59,19.33,19.58c10.7-0.01,19.38-8.8,19.35-19.6
		C477.38,279.3,468.67,270.64,457.89,270.72z"/>
	<path class="st0" d="M331.91,290.05c0.06-13.42,11.1-24.41,24.54-24.45c13.67-0.04,25.02,11.23,24.9,24.71
		c-0.12,13.47-11.36,24.5-24.9,24.44C342.88,314.7,331.85,303.59,331.91,290.05z M337.27,290.25c0.05,10.83,8.76,19.54,19.46,19.45
		c10.69-0.1,19.35-8.98,19.24-19.73c-0.11-10.7-8.71-19.25-19.37-19.26C345.82,270.71,337.23,279.4,337.27,290.25z"/>
	<path class="st0" d="M324.03,313.16c-1.53,0-3.11,0-4.98,0c0-1.15,0-2.12,0-3.09c0-8.48,0.03-16.97-0.01-25.45
		c-0.03-7.94-4.96-13.31-12.58-13.82c-8.15-0.54-15.66,4.75-16.2,12.26c-0.58,7.99-0.26,16.05-0.33,24.08c-0.02,1.96,0,3.93,0,6.03
		c-1.79,0-3.3,0-4.99,0c0-15.29,0-30.58,0-45.99c1.59,0,3.09,0,4.89,0c0,2.41,0,4.81,0,7.91c0.85-0.95,1.25-1.33,1.57-1.77
		c4.89-6.57,12.41-9.12,20.43-6.91c7.39,2.03,12.01,7.4,12.37,15.86c0.43,10.09,0.12,20.21,0.12,30.32
		C324.32,312.75,324.17,312.91,324.03,313.16z"/>
	<path class="st0" d="M429.16,272.82c-1.15,1.11-2.31,2.22-3.47,3.33c-10.81-9.11-22.54-5.42-28.2,1
		c-6.39,7.24-6.48,18.41,0.01,26.01c6.87,8.05,16.98,8.46,28.44,0.99c0.96,1.1,1.97,2.24,2.99,3.4c-7.3,8.92-23.6,9.62-33.01,1.34
		c-10.8-9.5-11.63-25.47-1.86-35.69C403.48,263.33,419.74,263.1,429.16,272.82z"/>
	<path class="st0" d="M179.71,272.34c-1.92-0.09-3.51-0.16-5.31-0.25c0-1.67,0-3.22,0-5c1.68,0,3.28,0,5.18,0
		c0.48-4.04-1.53-9.37,5.23-9.99c0,3.1,0,6.3,0,9.82c3.29,0,6.4,0,9.67,0c0,1.88,0,3.45,0,5.34c-3.14,0-6.26,0-9.58,0
		c0,8.41,0,16.51,0,24.61c0,0.36,0,0.72,0,1.08c0,9.47,0.15,9.64,9.6,10.45c0.05,0.74,0.14,1.52,0.14,2.3
		c0,0.79-0.08,1.58-0.15,2.93c-2.91-0.38-5.8-0.29-8.32-1.2c-4.74-1.71-6.45-5.7-6.45-10.53c0-8.75,0-17.5,0-26.25
		C179.71,274.66,179.71,273.67,179.71,272.34z"/>
	<path class="st0" d="M492.06,267.16c1.73,0,3.24,0,4.97,0c0,1.87,0,3.63,0,6.15c4.68-6.9,10.5-8.98,18.01-6.79
		c-0.59,1.63-1.1,3.04-1.53,4.23c-2.47,0.12-4.78-0.1-6.92,0.39c-5.61,1.27-9.45,6.36-9.49,12.34c-0.06,8.85-0.02,17.7-0.02,26.55
		c0,0.98,0,1.96,0,3.12c-1.75,0-3.31,0-5.02,0C492.06,297.83,492.06,282.6,492.06,267.16z"/>
	<path class="st0" d="M207.91,267.13c1.74,0,3.26,0,4.98,0c0,15.32,0,30.6,0,46.04c-1.66,0-3.23,0-4.98,0
		C207.91,297.83,207.91,282.62,207.91,267.13z"/>
	<path class="st0" d="M210.45,251.9c1.83,0.02,3.44,1.66,3.41,3.48c-0.03,1.83-1.71,3.62-3.47,3.44c-2.01-0.21-3.34-1.33-3.38-3.5
		C206.98,253.43,208.59,251.88,210.45,251.9z"/>
</g>
<g>
	<path class="st0" d="M64.09,294.58c-7.33,4.53-14.05,8.65-20.72,12.82c-9.84,6.16-19.67,12.33-29.45,18.57
		c-1.35,0.86-2.55,0.87-3.87,0.31c-5.63-2.34-7.38-7-6.45-12.45c0.15-0.86,1.19-1.8,2.06-2.26c13.62-7.33,27.28-14.57,40.91-21.86
		c3.59-1.92,7.13-3.91,11.12-6.1c-0.96-0.64-1.55-1.11-2.2-1.45c-16.08-8.62-32.15-17.25-48.25-25.84c-3.83-2.04-5.01-4.7-3.59-8.93
		c1.09-3.24,3.33-5.42,6.45-6.75c1.39-0.59,2.53-0.4,3.86,0.44c16,10.06,32.05,20.04,48.08,30.04c0.48,0.3,1,0.55,1.84,1.02
		c0.1-1,0.26-1.74,0.24-2.48c-0.51-16.6-1.04-33.2-1.56-49.8c-0.08-2.56-0.23-5.13-0.14-7.68c0.03-0.82,0.56-1.79,1.15-2.4
		c3.58-3.67,10.5-3.52,13.92-0.02c0.63,0.65,1.21,1.73,1.19,2.6c-0.2,8.56-0.56,17.11-0.82,25.66c-0.33,10.97-0.61,21.95-0.9,32.93
		c-0.01,0.27,0.12,0.55,0.26,1.14c0.73-0.35,1.38-0.58,1.95-0.93c15.36-9.57,30.69-19.17,46.07-28.71c1.64-1.01,3.01-2.86,5.47-1.94
		c3.05,1.14,5.33,3.06,6.56,6.04c0.54,1.32,0.81,2.82,0.85,4.26c0.07,2.23-0.78,3.84-3.02,5.02c-16.71,8.83-33.35,17.81-50,26.75
		c-0.38,0.2-0.73,0.46-1.34,0.85c0.58,0.44,0.96,0.83,1.43,1.08c16.58,8.89,33.15,17.81,49.8,26.58c2.32,1.22,3.23,2.96,3.11,5.22
		c-0.18,3.46-1.39,6.56-4.39,8.68c-2.94,2.07-4.45,2.13-7.47,0.24c-15.48-9.67-30.96-19.34-46.44-29.01
		c-0.73-0.46-1.49-0.86-2.52-1.46c-0.14,0.8-0.32,1.34-0.3,1.87c0.5,14.62,1.05,29.25,1.53,43.87c0.16,4.76,0.22,9.52,0.22,14.27
		c0,0.72-0.35,1.61-0.85,2.12c-3.84,3.9-10.54,3.97-14.46,0.13c-0.59-0.58-1.03-1.64-1.01-2.46c0.52-17.33,1.12-34.67,1.68-52
		C64.16,300.1,64.09,297.64,64.09,294.58z"/>
</g>
</svg>
